
        <svg xmlns="http://www.w3.org/2000/svg" xmlns:xlink="http://www.w3.org/1999/xlink" version="1.1" width="3176.470588235294" 
        height="2083.331326059281" viewBox="0 -8.823529411764707 3176.470588235294 2083.331326059281">
			
			<g transform="scale(8.823529411764707) translate(10, 10)">
				<defs id="SvgjsDefs1116"></defs><g id="SvgjsG1117" featureKey="symbolFeature-0" transform="matrix(1.2710501974279662,0,0,1.2710501974279662,106.57739347219598,-16.56105789314025)" fill="#5aaba0"><defs xmlns="http://www.w3.org/2000/svg"></defs><g xmlns="http://www.w3.org/2000/svg"><path class="fil0" d="M90.24 28.24l0.06 0.12c0.47,1.17 0.85,2.4 1.1,3.66 0.24,1.22 0.37,2.47 0.37,3.74 0,8.88 -3.48,16.77 -8.55,23.59 -0.03,0.11 -0.07,0.22 -0.14,0.32 -0.09,0.15 -0.22,0.26 -0.36,0.34 -2.09,2.73 -4.44,5.29 -6.91,7.66 -8.64,8.31 -18.82,14.4 -25.08,18.01 -0.48,0.28 -1.05,0.26 -1.5,0 -6.25,-3.61 -16.43,-9.69 -25.08,-18.01 -8.77,-8.43 -15.95,-19.15 -15.95,-31.91 0,-5.78 2.63,-11.02 6.49,-14.89 0.98,-0.98 2.04,-1.87 3.16,-2.66 0.1,-1.2 -0.7,-1.96 -1.17,-2.42 -0.27,-0.26 -0.48,-0.46 -0.62,-0.73l0 -0.01c-0.1,-0.22 -0.14,-0.44 -0.1,-0.68l0.02 -0.07c0.11,-0.48 0.62,-0.95 1.44,-1.27 0.57,-0.23 1.36,-0.44 2.32,-0.59 2.79,-0.42 7.18,-0.31 11.94,1.74 3.95,0.25 7.81,1.31 11.16,3.22 2.83,1.61 5.29,3.82 7.14,6.64 1.86,-2.82 4.32,-5.03 7.15,-6.64 3.87,-2.2 8.42,-3.28 13,-3.28 3.09,0 6.28,0.87 9.23,2.4 2.94,1.54 5.64,3.76 7.76,6.44 0.51,0.65 0.41,1.59 -0.24,2.1 -0.65,0.51 -1.59,0.4 -2.1,-0.25 -1.86,-2.35 -4.23,-4.29 -6.8,-5.64 -2.52,-1.31 -5.23,-2.05 -7.85,-2.05 -4.09,0 -8.13,0.94 -11.52,2.88 -3.07,1.75 -5.64,4.32 -7.27,7.73 -0.09,0.19 -0.22,0.36 -0.38,0.5 0.83,2.14 1.76,5.03 2.13,7.66 0.34,2.51 0.17,4.84 -1.04,6.27l-0.06 0.08c-1,1.12 -2.34,0.43 -4.11,-0.49 -0.8,-0.41 -1.73,-0.89 -2.7,-1.23l1.42 1.44c1.35,1.38 2.23,2.62 1.18,3.63 -1.59,1.54 -5.08,-0.33 -9.4,-2.64 -6.4,-3.43 -14.91,-7.98 -18.78,-3.17 -1.64,2.04 -2.37,5.14 -2.4,8.35 -0.01,0.43 0,0.87 0.03,1.31 1.6,1.02 4.7,1.23 6.89,1.38 1.78,0.12 3.1,0.21 3.49,0.98 0.37,0.73 0.04,1.39 -1.22,2.03 -3.22,1.62 -4.65,3.01 -5.2,4.11 -0.45,0.91 -0.24,1.64 -0.07,2.11l0.01 0.03 0.43 0.51c2.51,0.26 4.98,-0.86 7.27,-1.9 3.37,-1.54 6.43,-2.92 9.35,-0.43 3.48,2.97 5.9,1.71 8.26,0.47 2.62,-1.37 5.2,-2.72 8.81,-0.24 2.2,1.5 3.95,0.65 5.72,-0.21 2.61,-1.27 5.25,-2.54 9.12,0.96 1.82,1.65 3.32,0.71 4.9,-0.29 1.74,-1.09 3.56,-2.23 5.93,-1.53 4.67,-6.32 7.85,-13.58 7.85,-21.66 0,-1.08 -0.11,-2.14 -0.31,-3.17 -0.16,-0.81 -0.39,-1.61 -0.66,-2.38 -2.25,1.76 -4.9,3.69 -7.66,5.52 -3.42,2.28 -7.02,4.42 -10.22,5.93 0.26,1.14 0.3,2.1 0.16,2.9 -0.16,0.95 -0.57,1.69 -1.14,2.26 -0.55,0.55 -1.24,0.91 -1.99,1.14l-0.05 0.02c-1.54,0.45 -3.36,0.35 -4.76,0.14l-3.47 2.47c-0.65,0.46 -1.29,0.8 -1.9,1.01 -0.8,0.27 -1.54,0.34 -2.2,0.2 -0.73,-0.16 -1.34,-0.55 -1.78,-1.17 -0.18,-0.25 -0.33,-0.55 -0.44,-0.88 -0.07,-0.19 -0.12,-0.37 -0.15,-0.54l0 -0.04c-0.16,-0.97 0.13,-1.82 0.65,-2.49 0.49,-0.63 1.18,-1.09 1.86,-1.33 0.19,-0.06 0.37,-0.11 0.56,-0.15 0.54,-0.09 1.05,0.28 1.15,0.82 0.09,0.54 -0.28,1.06 -0.82,1.15l-0.24 0.07c-0.35,0.12 -0.69,0.35 -0.93,0.66 -0.2,0.26 -0.32,0.58 -0.26,0.94l0.06 0.26c0.05,0.14 0.11,0.27 0.19,0.38 0.14,0.19 0.33,0.32 0.56,0.37 0.31,0.06 0.7,0.02 1.14,-0.13 0.42,-0.15 0.9,-0.4 1.4,-0.76l3.26 -2.32c-0.52,-2.71 -0.26,-4.59 0.43,-5.85l0.04 -0.07c0.51,-0.9 1.24,-1.48 2.05,-1.81 0.8,-0.32 1.68,-0.4 2.52,-0.3 1.2,0.14 2.36,0.65 3.14,1.3 3.12,-1.46 6.68,-3.58 10.08,-5.84 4.39,-2.93 8.52,-6.09 11.1,-8.38 0.41,-0.37 1.04,-0.33 1.41,0.08 0.37,0.41 0.33,1.04 -0.08,1.41 -0.38,0.33 -0.79,0.69 -1.23,1.06zm-22.13 15.98c0.12,-0.67 0.05,-1.53 -0.27,-2.64 -0.42,-0.47 -1.3,-0.88 -2.25,-0.98 -0.53,-0.07 -1.07,-0.02 -1.54,0.16 -0.42,0.17 -0.8,0.48 -1.06,0.94l-0.03 0.05c-0.48,0.88 -0.65,2.29 -0.23,4.44 1.14,0.15 2.5,0.2 3.6,-0.12l0.03 -0.01c0.46,-0.14 0.87,-0.36 1.17,-0.66 0.29,-0.28 0.49,-0.67 0.58,-1.18zm-48.31 -27.25c1.97,-1.13 4.07,-1.96 6.2,-2.43 -2.36,-0.41 -4.43,-0.35 -5.96,-0.12 -0.63,0.09 -1.15,0.22 -1.56,0.35 0.51,0.52 1.08,1.24 1.32,2.2zm25.09 14.08c-0.55,-0.06 -0.94,-0.56 -0.88,-1.11 0.07,-0.54 0.56,-0.93 1.11,-0.87l0.17 0.02c0.55,0.06 0.94,0.56 0.87,1.11 -0.06,0.55 -0.56,0.94 -1.11,0.87l-0.16 -0.02zm-9.38 8.14l0 0.01c1.31,0.66 2.6,1.35 3.81,1.99 3.61,1.94 6.53,3.5 7.07,2.97 0.19,-0.18 -0.65,-0.23 -1.22,-0.81l-0.65 -0.66c-0.99,-1 -2.09,-2.09 -2.66,-3.16 -0.26,-0.48 -0.08,-1.09 0.4,-1.35 0.17,-0.09 0.35,-0.13 0.53,-0.12 2.31,0.01 4.38,1.08 6,1.91 0.99,0.52 1.68,0.97 1.71,0.94l0.05 -0.05c0.77,-0.92 0.83,-2.7 0.56,-4.7 -0.46,-3.33 -1.9,-7.13 -2.78,-9.03 -1.64,-3.12 -4.08,-5.49 -6.97,-7.13 -3.4,-1.94 -7.43,-2.88 -11.52,-2.88 -4.57,0 -9.41,2.25 -13.02,5.87 -3.35,3.35 -5.62,7.84 -5.62,12.77 0,5.77 1.62,11.12 4.25,16.01 -0.08,-0.56 -0.14,-1.12 -0.18,-1.69l0 0 0 -0.02 0 0 0 -0.03 -0.01 -0.02 0 0 0 -0.03c-0.04,-0.62 -0.06,-1.25 -0.05,-1.87 0.03,-3.62 0.89,-7.16 2.83,-9.58 3.55,-4.41 9.42,-3.02 15.06,-0.48 -0.6,-2.49 -0.61,-4.86 -0.06,-6.82 0.69,-2.44 2.22,-4.28 4.58,-5.08l0.18 -0.06c0.52,-0.17 1.09,0.12 1.26,0.64 0.17,0.52 -0.12,1.09 -0.65,1.26l-0.16 0.05c-1.68,0.58 -2.78,1.93 -3.29,3.72 -0.54,1.93 -0.42,4.36 0.38,6.94l0.17 0.49zm-18.05 12.56c0.32,2.13 0.92,4.14 1.75,5.74 0.06,-0.15 0.12,-0.29 0.2,-0.44 0.62,-1.24 1.96,-2.68 4.66,-4.24l-0.08 0c-1.94,-0.13 -4.52,-0.3 -6.53,-1.06zm32.86 21.68c0.46,-0.31 1.08,-0.18 1.39,0.28 0.3,0.46 0.17,1.08 -0.28,1.38l-0.57 0.37c-2.26,1.51 -4.61,3.07 -7.71,0.6 -1.39,-1.11 -2.61,-0.66 -3.84,-0.07 3.98,2.72 7.71,4.95 10.68,6.67 5.05,-2.93 12.34,-7.35 19.24,-13.11 -1.07,0.11 -2.1,-0.12 -3.12,-0.99 -2.38,-2.03 -4.01,-1.09 -5.47,-0.24 -1.74,1.01 -3.32,1.92 -5.43,0.13 -2.32,-1.98 -4.3,-0.71 -5.77,0.22l-0.74 0.47c-0.48,0.27 -1.09,0.11 -1.37,-0.37 -0.27,-0.47 -0.11,-1.08 0.37,-1.36l0.67 -0.42c1.99,-1.27 4.69,-3 8.14,-0.06 1.03,0.88 2.03,0.3 3.13,-0.34 2.04,-1.18 4.31,-2.49 7.77,0.45 1.15,0.99 2.76,0.3 4.66,-0.51 0.34,-0.14 0.69,-0.29 1.07,-0.44l0.6 -0.57c2.04,-1.96 3.98,-4.05 5.76,-6.25 -1.27,0.01 -2.38,0.7 -3.44,1.37 -2.25,1.41 -4.36,2.74 -7.31,0.07 -2.87,-2.59 -4.9,-1.61 -6.92,-0.63 -2.28,1.11 -4.55,2.21 -7.7,0.05 -2.63,-1.8 -4.69,-0.72 -6.77,0.36 -2.95,1.55 -5.97,3.13 -10.47,-0.72 -1.96,-1.66 -4.47,-0.52 -7.24,0.74 -1.98,0.89 -4.07,1.84 -6.31,2.07 0.93,1.01 1.9,1.99 2.89,2.94 3.59,3.45 7.46,6.51 11.21,9.17l0.63 -0.31c1.93,-0.96 3.81,-1.89 6.32,0.12 1.97,1.56 3.7,0.42 5.36,-0.69l0.57 -0.38z" style="fill: #5aaba0; fill-rule: nonzero;"></path></g></g><g id="SvgjsG1118" featureKey="nameFeature-0" transform="matrix(1.7231592913763543,0,0,1.7231592913763543,-3.4463185827527085,96.76841201623473)" fill="#f85f73"><path d="M3.8 12.2 l-1.8 -1.8 l0 -0.4 l8.52 0 l0 0.4 l-1.8 1.8 l3.44 14.36 l0.32 -1.48 l-2.96 -12.52 l1.76 -1.72 l1.08 0 l0 0.4 l-1.84 1.8 l2.44 10.12 l2.6 -10.96 l-1.8 -1.8 l0 -0.4 l8.56 0 l0 0.4 l-1.8 1.8 l3.44 14.36 l0.32 -1.44 l-2.96 -12.56 l1.72 -1.72 l1.08 0 l0 0.4 l-1.8 1.76 c0 0.08 0.04 0.08 0.04 0.16 l2.4 10.04 l2.6 -11 l-1.8 -1.8 l0 -0.4 l8.52 0 l0 0.4 l-1.8 1.8 l-5.84 24.76 l1.76 1.72 l0 0.48 l-8.56 0 l0 -0.44 l1.84 -1.76 l-2.44 -10.16 l-2.6 11 l1.8 1.76 l0 0.44 l-8.56 0 l0 -0.44 l0.04 -0.04 l7.48 0 l0 -0.44 l-1.8 -1.76 l3.08 -12.92 l-0.44 -1.8 l-3.4 14.36 l1.8 1.72 l0 0.48 l-8.56 0 l0 -0.48 l1.8 -1.72 z M27.2 37.32 l5.88 -24.76 l1.76 -1.72 l1.04 0 l0 0.4 l-1.8 1.8 l-5.84 24.76 l1.76 1.76 l0 0.44 l-8.52 0 l0 -0.48 l7.52 0 l0 -0.44 z M44.592 12.2 l-1.8 -1.8 l0 -0.4 l8.52 0 l0 0.4 l-1.8 1.8 l0 24.76 l1.8 1.72 l0 0.48 l-8.52 0 l0 -0.48 l1.8 -1.72 l0 -24.76 z M50.312 37.32 l0 -24.76 l1.76 -1.72 l1.04 0 l0 0.4 l-1.8 1.8 l0 24.76 l1.8 1.76 l0 0.44 l-8.52 0 l0 -0.44 l0.04 -0.04 l7.48 0 l0 -0.44 z M60.024 12.2 l2.24 -2.2 l11.36 0 l2.2 2.2 l0 3 c-0.04 0 -0.04 0.04 -0.04 0.04 l-4.84 1.36 l0 -2.8 l-0.8 -0.76 l-1.76 0 l-1.6 1.6 l0 6.6 l9.04 2.72 l0 13 l-2.24 2.2 l-11.32 0 l-2.24 -2.2 l0 -5.8 l4.92 -1.4 l0 5.56 l1.64 1.6 l0.4 0 l-1.24 -1.24 l0 -4.8 c0.32 -0.08 0.96 -0.28 0.96 -0.28 l0.04 0 l0 5.56 l0.76 0.76 l1.8 0 l1.6 -1.6 l0 -8.72 l-9.08 -2.72 l0 -0.2 l9.04 2.68 l0.04 0.04 l0 -0.12 l-10.88 -3.24 l0 -10.84 z M76.624 15.559999999999999 l0 -3 l-1.72 -1.72 l0.52 0 l2.2 2.16 l0 3.04 l-0.04 0.04 l-4.84 1.36 l0 -0.76 c0.04 0 0.04 -0.04 0.08 -0.04 z M66.584 12.2 l-1.6 1.6 l0 6.88 l0.76 0.24 l0 -6.76 l1.68 -1.64 l2.2 0 l-0.32 -0.32 l-2.72 0 z M74.384 39.52 l2.24 -2.2 l0 -12.84 l1 0.32 l0 13 l-2.24 2.2 l-11.32 0 l-0.48 -0.48 l10.8 0 z M88.336 12.2 l-1.8 -1.8 l0 -0.4 l19.44 0 l0 0.4 l-1.8 1.8 l0 2.96 l-4.92 1.44 l0 -3.56 l-4.2 0 l0 9 l4.16 -1.4 l0.04 0 l0 3.92 l-0.04 0.04 l-5.96 1.68 l0 10.64 l0.8 0 l0 -10.28 l6 -1.72 l0 -3.12 l1 -0.32 l0 3.92 c0 0.04 -0.04 0.04 -0.04 0.04 l-5.96 1.68 l0 9.8 l4.2 0 l0 -9.24 l0.08 0 l4.84 -1.44 l0 10.72 l1.8 1.72 l0 0.48 l-19.44 0 l0 -0.44 l1.8 -1.76 l0 -9.48 c-0.2 -0.08 -0.4 -0.2 -0.6 -0.32 c0.2 0 0.4 0.12 0.6 0.12 l0 -0.2 c-2.04 -0.28 -3.8 -1.12 -3.8 -3.4 c0 -1.16 0.52 -2.24 1.16 -3.2 c0.08 -0.08 0.24 -0.36 0.24 -0.36 c0 1.4 0.32 2.64 1.8 3.08 c-0.16 -0.2 -0.76 -0.64 -0.76 -1 c0.2 -0.4 0.44 -0.76 0.72 -1.16 c0 0 0.04 -0.04 0.04 -0.08 c0 0.8 0.08 1.56 0.56 2.24 c0 0.04 0.08 0.16 0.12 0.16 l0.52 0 l0.24 0 l0.4 0 c0 0 0.36 0 0.48 -0.04 l0.08 0 l0 -0.4 l0.12 0 c1.32 -0.08 2.52 -0.28 3.76 -0.8 l0.04 0 l0 -9.6 l5.2 0 l0 -0.32 l-6 0 l0 9.56 c0 0.04 -0.24 0.12 -0.36 0.16 c-1.48 0.56 -2.92 0.64 -4.48 0.64 l-0.08 -0.04 l0 -10.32 z M104.936 15.52 l0 -2.96 l1.76 -1.72 l1.08 0 l0 0.4 l-1.8 1.8 l0 3 l-4.92 1.4 l0 -0.8 l3.8 -1.08 c0.04 -0.04 0.08 -0.04 0.08 -0.04 z M106.776 39.08 l-1.84 -1.76 l0 -9.92 c0.32 -0.12 1 -0.32 1 -0.32 l0.04 0 l0 10.72 l1.8 1.76 l0 0.44 l-19.44 0 l0 -0.44 l0.04 -0.04 l18.4 0 l0 -0.44 z M116.36800000000001 12.2 l-1.68 -1.8 l0 -0.4 l7.92 0 l0 0.4 l-1.68 1.8 l5.4 5.64 l0.24 -0.24 l-4.84 -5.04 l1.6 -1.72 l1.08 0 l0 0.4 l-1.68 1.8 l4.12 4.28 l4.88 -5.12 l-1.64 -1.8 l0 -0.4 l7.92 0 l0 0.4 l-1.68 1.76 l0 24.8 l1.68 1.72 l0 0.48 l-7.92 0 l0 -0.48 l1.64 -1.72 l0 -16.8 l-3.6 3.76 l-0.72 -0.8 l4.32 -4.52 l0 -1.16 l-5.4 5.64 l-3.6 -3.76 l0 18.48 l1.68 1.76 l0 0.44 l-7.92 0 l0 -0.44 l0.04 -0.04 l6.84 0 l0 -0.48 l-1.64 -1.72 l0 -19.08 l-0.8 -0.8 l0 19.52 l1.68 1.72 l0 0.48 l-7.92 0 l0 -0.48 l1.68 -1.72 l0 -24.76 z M137.12800000000001 37.32 l0 -24.76 l1.6 -1.72 l1.08 0 l0 0.4 l-1.68 1.8 l0 24.76 l1.68 1.72 l0 0.48 l-7.92 0 l0 -0.44 l0.04 -0.04 l6.88 0 l0 -0.44 z M150.52 22.56 l0 -10.36 l2.24 -2.2 l11.32 0 l2.28 2.2 l0 24.76 l1.8 1.72 l0 0.48 l-8.56 0 l0 -0.44 l1.84 -1.76 l0 -11.04 l-4.2 1.16 l0 10.72 l1.8 1.76 l0 0.44 l-8.52 0 l0 -0.44 l0.04 -0.04 l7.48 0 l0 -0.44 l-1.8 -1.76 l0 -10.72 l0.08 0 l5.12 -1.48 l0 -0.56 l-6 1.68 l0 10.72 l1.8 1.72 l0 0.48 l-8.52 0 l0 -0.44 l1.8 -1.76 l0 -9.52 c-0.08 0 -0.32 -0.16 -0.4 -0.16 c0 -0.04 -0.16 -0.12 -0.2 -0.16 l0.04 0 c0.08 0.04 0.48 0.16 0.56 0.16 l0 -0.24 c-1.96 -0.2 -3.8 -1.16 -3.8 -3.36 c0 -1.32 0.68 -2.48 1.4 -3.56 l0 -0.04 c0 1.08 0.2 2.32 1.24 2.84 c0.16 0.08 0.4 0.24 0.56 0.24 c-0.2 -0.24 -0.48 -0.4 -0.64 -0.72 c0 -0.04 -0.12 -0.24 -0.12 -0.24 l0 -0.04 s0.08 -0.12 0.08 -0.16 c0.12 -0.16 0.6 -1 0.68 -1.04 l0 -0.04 c0 0.8 0.08 1.56 0.52 2.2 c0 0.04 0.12 0.16 0.16 0.2 c0.08 0.04 0.2 0.04 0.36 0.04 c0.28 0 0.6 0 0.88 -0.04 c0.16 0 0.44 -0.04 0.44 -0.04 l0.04 0 l0 -0.32 c1.32 -0.08 2.6 -0.36 3.92 -0.88 l0 -7.92 l1.64 -1.64 l2.24 0 l-0.32 -0.32 l-2.72 0 l-1.64 1.6 l0 7.92 l-0.04 0.04 c-0.8 0.52 -3.2 0.84 -4.12 0.84 c-0.28 0 -0.44 0 -0.76 -0.04 z M167.12 12.559999999999999 l-1.76 -1.72 l0.52 0 l2.28 2.2 l0 24.76 l1.8 1.76 l0 0.44 l-8.52 0 l0 -0.48 l7.52 0 l0 -0.44 l-1.84 -1.76 l0 -24.76 z M158.88 13.04 l-1.64 1.6 l0 7.36 l4.2 -1.4 l0 -6.8 l-0.8 -0.76 l-1.76 0 z M178.67200000000003 12.2 l-1.8 -1.8 l0 -0.4 l8.52 0 l0 0.4 l-1.76 1.76 l0.04 0.04 l7.12 9.16 l0 -0.64 l-6.36 -8.2 l1.72 -1.68 l1.08 0 l0 0.4 l-1.8 1.76 l5.36 6.88 l0 -7.68 l-1.8 -1.8 l0 -0.4 l8.52 0 l0 0.4 l-1.76 1.8 l0 24.76 l1.76 1.72 l0 0.48 l-8.52 0 l0 -0.44 l1.8 -1.76 l0 -9.76 l-5.36 -6.92 l0 17.52 l1.8 1.76 l0 0.44 l-8.56 0 l0 -0.44 l0.04 -0.04 l7.48 0 l0 -0.48 l-1.8 -1.72 l0 -18.4 l-0.8 -1 l0 19.04 l1.8 1.72 l0 0.48 l-8.52 0 l0 -0.48 l1.8 -1.72 l0 -24.76 z M196.55200000000002 37.32 l0 -24.76 l1.68 -1.72 l1.08 0 l0 0.4 l-1.76 1.8 l0 24.76 l1.76 1.76 l0 0.44 l-8.52 0 l0 -0.44 l0.04 -0.04 l7.48 0 l0 -0.44 z"></path></g><g id="SvgjsG1119" featureKey="sloganFeature-0" transform="matrix(2.06335055436804,0,0,2.06335055436804,47.071815876943504,156.3372135391512)" fill="#f85f73"><path d="M3.08 22.9 c-3.02 0.86 -4.46 -0.9 -4 -3.44 c0.82 -4.44 3.42 -7.72 7.16 -10.1 c0.88 -0.56 1.88 -0.86 2.92 -0.8 c1.96 -0.26 2.62 1.28 1.94 2.84 c-0.66 1.54 -1.74 2.72 -3.34 3.34 c-0.16 0.06 -0.32 0.12 -0.48 0.14 c-0.22 0.02 -0.26 -0.16 -0.26 -0.34 c0.02 -0.16 0.1 -0.18 0.26 -0.2 c1.7 -0.18 3.68 -2.32 3.74 -4 c0.02 -0.78 -0.54 -1.4 -1.36 -1.44 c-1.34 -0.08 -2.56 0.34 -3.64 1.08 c-3.16 2.16 -5.34 5.04 -6.38 8.74 c-0.22 0.82 -0.24 1.64 -0.08 2.46 c0.26 1.26 1.6 1.9 3.1 1.48 c1.8 -0.5 3.3 -1.5 4.68 -2.74 c0.16 -0.16 0.32 -0.34 0.5 -0.5 c0.1 -0.1 0.24 -0.32 0.38 -0.2 c0.22 0.2 -0.04 0.36 -0.18 0.46 c-1.48 1.32 -2.98 2.66 -4.96 3.22 z M9.14 20.02 c-0.44 -0.28 -0.32 -0.78 -0.24 -1.18 c0.22 -0.96 0.72 -1.78 1.22 -2.6 c0.08 -0.12 0.2 -0.32 0.38 -0.18 s0.02 0.3 -0.04 0.44 c-0.42 0.76 -0.86 1.48 -1.12 2.32 c-0.1 0.3 -0.24 0.58 0.02 0.82 c0.3 0.26 0.62 0.14 0.92 -0.04 c1.18 -0.66 2.1 -1.62 3.02 -2.58 c0.06 -0.08 0.12 -0.16 0.2 -0.24 c0.16 -0.16 0.28 -0.54 0.6 -0.32 c0.26 0.18 -0.02 0.42 -0.1 0.62 c-0.22 0.48 -0.46 0.94 -0.64 1.44 c-0.24 0.74 0.16 1.2 0.9 1.02 c0.88 -0.2 1.68 -0.6 2.36 -1.22 c0.84 -0.76 1.46 -1.34 2.3 -2.08 c0.1 -0.1 0.22 -0.18 0.34 -0.04 c0.02 0.02 -0.04 0.18 -0.1 0.24 c-1.28 1.26 -2.28 2.42 -3.96 3.18 c-0.38 0.16 -0.78 0.38 -1.14 0.3 c-0.98 -0.02 -1.28 -0.44 -1.16 -1.5 c0.02 -0.12 0.08 -0.34 0.06 -0.36 c-0.18 -0.06 -0.28 0.1 -0.38 0.2 c-0.66 0.66 -1.38 1.24 -2.2 1.68 c-0.42 0.22 -0.84 0.32 -1.24 0.08 z M18.52 20.44 c-0.3 -0.36 -0.02 -0.76 0.52 -1.02 c0.52 -0.26 0.62 -0.66 0.46 -1.02 c-0.52 -1.18 -0.68 -1.5 -0.56 -1.98 c0.12 -0.42 0.46 -0.7 0.86 -0.72 c0.38 -0.02 0.64 0.16 0.8 0.48 c0.14 0.28 0.1 0.74 -0.26 0.98 c-0.08 0.04 -0.22 0.12 -0.3 0.04 c-0.12 -0.08 -0.06 -0.16 0.04 -0.26 c0.52 -0.4 -0.04 -1.1 -0.48 -0.76 c-0.48 0.36 -0.28 0.94 0.38 2.36 c0.06 0.12 0.2 0.3 0.44 0.18 c0.46 -0.2 1.04 -0.46 1.6 -0.72 c1.02 -0.48 1.94 -1.06 2.88 -1.68 c0.12 -0.08 0.28 -0.3 0.42 -0.08 c0.12 0.18 -0.08 0.26 -0.22 0.36 c-1.32 0.94 -2.7 1.72 -4.22 2.3 c-0.48 0.18 -0.84 0.5 -0.96 0.96 c-0.14 0.5 -1.02 1.04 -1.4 0.58 z M19.16 20.22 c0.46 -0.18 0.64 -0.84 0.24 -0.64 c-0.86 0.42 -0.62 0.8 -0.24 0.64 z M26.099999999999998 20.04 c-1.18 0.08 -1.56 -0.28 -1.62 -1.44 c-0.04 -1.04 0.38 -1.96 0.76 -2.86 c0.42 -0.98 0.86 -1.94 1.3 -2.9 c0.1 -0.24 0.38 -0.66 0.24 -0.74 c-0.04 -0.08 -0.72 0.02 -0.96 0.02 c-0.58 0.06 -1.68 0.12 -2.04 0.12 c-0.12 0 -0.3 0 -0.28 -0.2 c0.02 -0.18 0.2 -0.16 0.3 -0.16 c0.46 -0.02 1.56 -0.06 2.34 -0.12 c1.12 -0.08 0.98 -0.16 1.48 -1.28 c0.26 -0.64 0.62 -1.24 0.94 -1.86 c0.08 -0.14 0.18 -0.34 0.36 -0.24 c0.2 0.1 0.04 0.28 -0.02 0.42 c-0.34 0.68 -0.68 1.36 -1 2.06 c-0.36 0.8 -0.42 0.8 0.02 0.78 c0.52 0 0.82 -0.04 1.02 -0.04 c0.3 0 0.66 -0.08 1.02 -0.08 c0.46 -0.02 0.6 -0.12 0.62 0.16 c0 0.18 -0.26 0.14 -0.7 0.18 c-0.46 0.04 -1.22 0.12 -1.98 0.16 c-0.5 0 -0.56 0.08 -0.7 0.42 c-0.74 1.74 -1.68 3.38 -2.2 5.2 c-0.18 0.66 -0.38 1.38 0.22 1.86 c0.64 0.5 1.32 0.16 1.9 -0.26 c1.04 -0.74 2 -1.84 2.84 -2.78 c0.12 -0.14 0.26 -0.42 0.44 -0.3 c0.24 0.2 -0.06 0.34 -0.22 0.62 c-0.96 1.08 -1.84 2.06 -3 2.84 c-0.32 0.22 -0.66 0.4 -1.08 0.42 z M30.72 20.26 c-0.74 0.2 -1.52 -0.24 -1.68 -0.96 c-0.32 -1.36 0.66 -3.12 1.96 -3.56 c1.2 -0.42 2.16 0.26 2.16 1.52 l0 0.5 c0 0.44 1.16 -0.4 2.24 -0.86 c0.66 -0.3 1.42 -0.56 2.12 -0.72 c0.1 -0.02 0.3 -0.06 0.3 0.14 c0 0.14 -0.12 0.14 -0.22 0.16 c-1.56 0.38 -2.82 1.14 -4.26 1.78 c-0.4 0.18 -0.66 0.4 -0.9 0.72 c-0.44 0.58 -0.96 1.1 -1.72 1.28 z M31.98 18.14 c0.48 0.12 0.82 -0.32 0.84 -1.14 c0.02 -0.24 -0.04 -0.56 -0.3 -0.74 c-0.32 -0.24 -0.4 0.28 -0.72 0.32 c-0.44 0.06 -0.56 0.52 -0.52 0.94 c0.04 0.38 0.36 0.54 0.7 0.62 z M30.439999999999998 19.86 c0.64 0 1.08 -0.4 1.48 -0.86 c0.16 -0.16 0.2 -0.34 -0.06 -0.44 c-1.04 -0.4 -1.28 -1.06 -0.74 -2.02 c0.04 -0.08 0.12 -0.2 0 -0.26 c-0.06 -0.04 -0.18 0 -0.26 0.04 c-0.76 0.32 -1.56 1.68 -1.48 2.5 c0.06 0.7 0.4 1.04 1.06 1.04 z M43.4 19.86 c-0.54 -0.52 -0.34 -1.14 -0.12 -1.74 c0.1 -0.22 0.22 -0.42 0.28 -0.64 c0.16 -0.42 0.7 -0.9 0.26 -1.24 c-0.3 -0.24 -0.84 0.18 -1.22 0.44 c-0.66 0.42 -1.2 0.96 -1.72 1.52 c-0.2 0.22 -0.42 0.42 -0.62 0.64 c-0.12 0.1 -0.26 0.12 -0.38 0.04 c-0.14 -0.1 -0.06 -0.22 0 -0.34 c0.24 -0.5 0.48 -1.02 0.7 -1.54 c0.1 -0.24 0.34 -0.54 0.08 -0.72 c-0.2 -0.14 -0.48 0.1 -0.72 0.22 c-1.12 0.6 -1.8 1.66 -2.62 2.56 c-0.1 0.1 -0.14 0.22 -0.24 0.32 c-0.12 0.14 -0.24 0.38 -0.48 0.24 c-0.22 -0.12 -0.08 -0.36 -0.06 -0.54 c0.22 -1.02 0.78 -1.9 1.12 -2.86 c0.04 -0.12 0.18 -0.24 0.32 -0.18 c0.12 0.06 0.12 0.22 0.08 0.36 c-0.26 0.64 -0.6 1.34 -0.84 1.96 c-0.06 0.1 0.08 0.08 0.14 0.02 c0.44 -0.38 0.78 -0.88 1.22 -1.28 c0.28 -0.24 0.54 -0.48 0.84 -0.68 c0.46 -0.3 0.96 -0.86 1.5 -0.54 c0.56 0.32 0.08 0.94 0 1.42 c-0.02 0.12 -0.08 0.22 -0.02 0.28 c0.04 0.04 0.12 0.02 0.24 -0.1 c0.74 -0.58 1.2 -1.26 2.16 -1.56 c0.3 -0.1 0.6 -0.22 0.86 -0.02 c0.3 0.26 0.24 0.62 0.12 0.94 c-0.2 0.52 -0.48 1 -0.68 1.52 c-0.16 0.44 -0.3 0.98 0.12 1.3 c0.36 0.32 0.82 0.1 1.2 -0.12 c0.68 -0.4 1.7 -1.22 4.08 -3.3 c0.08 -0.08 0.2 -0.22 0.3 -0.04 c0.04 0.04 -0.06 0.18 -0.12 0.24 c-1.4 1.32 -2.42 2.3 -4.06 3.34 c-0.52 0.32 -1.16 0.64 -1.72 0.08 z M52.5 27.22 c-1.02 -0.06 -1.3 -0.5 -0.8 -1.42 c0.48 -0.94 1.28 -1.62 2.1 -2.24 c1.9 -1.46 4 -2.6 6.12 -3.7 c0.54 -0.26 0.9 -0.64 1.16 -1.16 c1 -1.98 1.72 -4 2.06 -6.22 c0.16 -1.06 0.26 -1.8 -0.26 -3.16 c-0.24 -0.62 -1 -1.16 -1.94 -0.98 c-2.42 0.46 -4.98 2.26 -6.16 4.86 c-0.7 1.54 0 3.22 0.9 3.5 c0.1 0.06 0.26 0.1 0.18 0.26 c-0.02 0.04 -0.18 0.04 -0.28 0.02 c-1.2 -0.16 -1.86 -2.18 -1.26 -3.76 c0.88 -2.36 3.48 -4.7 6.54 -5.32 c1.48 -0.3 2.6 0.44 2.88 2.96 c0.16 2.26 -0.7 4.66 -1.92 7.36 c-0.24 0.62 -0.58 0.92 0.28 0.92 c0.2 0.04 0.12 0.26 -0.16 0.26 c-0.82 0 -1.12 0.7 -1.4 1.14 c-1.4 2.3 -3.06 4.34 -5.34 5.82 c-0.82 0.54 -1.7 0.92 -2.7 0.86 z M52.76 26.86 c0.62 0.04 1.16 -0.26 1.68 -0.54 c1.08 -0.56 2.02 -1.3 2.82 -2.18 c1.94 -2.08 3.02 -3.72 2.82 -3.9 c-0.1 -0.14 -4.02 2.12 -5.88 3.46 c-0.78 0.56 -1.48 1.22 -2.06 2 c-0.2 0.3 -0.44 0.66 -0.22 1 c0.18 0.28 0.56 0.14 0.84 0.16 z M66.24000000000001 14.32 c-0.22 0.02 -0.36 -0.12 -0.4 -0.34 c-0.08 -0.5 0.38 -0.58 0.66 -0.72 c0.2 -0.1 0.34 0.1 0.4 0.32 c-0.12 0.32 -0.24 0.68 -0.66 0.74 z M65.3 19.84 c-0.74 0.22 -1.34 -0.28 -1.28 -1.08 c0.22 -0.84 0.62 -1.68 1.02 -2.52 c0.08 -0.16 0.22 -0.3 0.38 -0.18 c0.2 0.14 0.02 0.3 -0.04 0.44 c-0.26 0.6 -0.56 1.2 -0.78 1.82 c-0.12 0.36 -0.28 0.78 0.12 1.12 c0.26 0.2 0.7 0 1.02 -0.12 c1.26 -0.52 2.26 -1.98 3.72 -3.06 c0.1 -0.06 0.18 -0.22 0.3 -0.06 c0.1 0.12 -0.02 0.22 -0.12 0.28 c-1.94 1.4 -2.3 2.78 -4.34 3.36 z M77.1 16.18 c0.22 0.22 -0.06 0.34 -0.18 0.46 c-1.72 1.5 -3.48 2.64 -5.42 3.82 c-0.6 0.38 -0.98 0.82 -1.24 1.48 c-0.54 1.42 -1.12 2.84 -1.76 4.22 c-0.36 0.8 -0.76 1.6 -1.62 2.06 c-1.18 0.64 -2.22 0.08 -2.3 -1.26 c-0.04 -0.86 0.22 -1.62 0.76 -2.3 c1.06 -1.34 2.42 -2.36 3.9 -3.2 c0.8 -0.44 1.34 -1.02 1.58 -1.88 c0.16 -0.5 0.52 -0.9 0.54 -1.44 c-0.62 0.2 -0.88 0.82 -1.38 1.18 c-0.52 0.34 -1.06 1.04 -1.72 0.56 c-0.58 -0.44 -0.3 -1.2 -0.12 -1.84 c0.26 -0.86 0.76 -1.54 1.6 -1.92 c0.62 -0.3 1.26 -0.4 1.88 0 c0.14 0.08 0.22 0.22 0.44 0.16 c0.48 -0.12 0.6 -0.02 0.44 0.42 c-0.46 1.14 -0.88 2.28 -1.46 3.36 c0 0.02 0.04 0.04 0.08 0.04 c0.22 0.02 1.02 -0.48 1.06 -0.5 c1.62 -1.04 3.06 -2 4.52 -3.24 c0.12 -0.1 0.26 -0.32 0.4 -0.18 z M69.16 19.46 c0.82 -0.46 1.42 -1.2 2.02 -1.9 c0.24 -0.28 0.64 -0.6 0.3 -1.04 c-0.32 -0.4 -0.78 -0.32 -1.2 -0.2 c-1 0.28 -1.94 1.58 -1.94 2.64 c-0.02 0.72 0.2 0.86 0.82 0.5 z M67.76 26.759999999999998 c0.82 -1.62 1.5 -3.3 2.04 -5.04 c0 -0.02 0 -0.08 -0.06 -0.06 c-1.68 0.78 -3.06 1.96 -4.24 3.36 c-0.48 0.58 -0.66 1.28 -0.56 2.04 c0.1 0.92 0.82 1.3 1.64 0.88 c0.52 -0.26 0.92 -0.68 1.18 -1.18 z M81.08000000000001 26.72 c-2.42 -0.78 -3.18 -2.96 -2.1 -5.08 c1.48 -2.86 3.8 -4.58 6.3 -5 c2.44 -0.4 3.98 0.92 3.84 2.92 c-0.1 1.34 -0.62 2.8 -1.76 3.98 c-0.12 0.12 -0.28 0.4 -0.46 0.24 c-0.22 -0.2 0.1 -0.32 0.22 -0.44 c1 -1.02 1.56 -2.34 1.66 -3.66 c0.12 -1.6 -1 -3.02 -3.82 -2.54 c-2.22 0.38 -4.32 2.32 -5.46 4.3 c-1.22 2.12 -0.7 4.4 2.2 5.06 c2.9 0.68 7.56 -0.92 8.32 -5.5 c0.58 -3.24 -0.9 -6.96 0.24 -9.82 c0.26 -0.56 0.18 -0.68 -0.46 -0.74 c-1.24 -0.1 -4 -0.14 -5.02 0.74 s-1.16 2.2 0.22 3.12 c0.1 0.06 0.32 -0.02 0.28 0.18 c-0.06 0.22 -0.26 0.18 -0.4 0.1 c-0.62 -0.28 -1.14 -0.7 -1.26 -1.42 c-0.12 -0.86 0.12 -1.62 0.8 -2.14 c1.08 -0.84 2.06 -0.94 4.26 -0.94 c1.16 0.06 2.16 0.14 2.52 -0.48 c0.98 -1.38 3.12 -2.94 4.88 -3.36 c1.06 -0.26 2.18 -0.04 2.52 0.8 c0.26 0.62 -0.22 1.58 -1.12 2.1 c-1.38 0.82 -4.46 1.5 -5.86 1.3 c-0.5 -0.06 -0.7 0.26 -0.86 0.66 c-1.28 3.26 0.52 6.22 -0.4 10.26 c-0.96 4.16 -5.3 6.62 -9.28 5.36 z M91.52000000000001 10.02 c0.24 0.38 4.04 -0.32 5.26 -0.9 c2.52 -1.16 1.56 -3.3 -1 -2.4 c-1.58 0.58 -2.96 1.48 -4.04 2.8 c-0.1 0.14 -0.34 0.28 -0.22 0.5 z M103.68 16.2 c0.18 0.12 0.06 0.24 -0.04 0.32 c-1.34 1.18 -2.4 2.44 -4 3.34 c-0.62 0.34 -1.38 0.82 -2.02 0.26 c-0.68 -0.62 -0.22 -1.42 0.06 -2.12 c0.18 -0.46 0.46 -0.9 0.62 -1.36 c0.12 -0.36 0.04 -0.58 -0.44 -0.4 c-1.12 0.44 -1.98 1.22 -2.8 2.04 c-0.2 0.22 -0.38 0.46 -0.58 0.7 c-0.12 0.14 -0.24 0.4 -0.44 0.26 c-0.16 -0.12 -0.08 -0.36 0 -0.56 c0.46 -1.1 0.88 -2.22 1.36 -3.32 c0.88 -2 1.8 -4 3.12 -5.76 c0.5 -0.66 1.06 -1.28 1.84 -1.62 c0.98 -0.42 1.74 0.06 1.72 1.14 c-0.04 1.12 -0.66 2.02 -1.34 2.82 c-1.12 1.34 -2.42 2.5 -3.98 3.3 c-1 0.5 -1.48 1.26 -1.7 2.26 c-0.02 0.08 -0.02 0.16 0.1 0.1 c0.64 -0.48 1.2 -1.04 1.92 -1.42 c0.32 -0.18 0.62 -0.38 1 -0.4 c0.64 -0.04 0.88 0.22 0.68 0.84 c-0.16 0.46 -0.42 0.9 -0.62 1.34 c-0.14 0.32 -0.28 0.62 -0.38 0.92 c-0.1 0.32 -0.18 0.68 0.08 0.94 c0.28 0.28 0.62 0.18 0.94 0.06 c1.26 -0.46 2.66 -1.74 4.58 -3.54 c0.08 -0.08 0.2 -0.22 0.32 -0.14 z M96.86 13.26 c-0.28 0.62 -0.72 1.16 -0.72 1.88 c2.14 -1 3.84 -2.52 5.08 -4.54 c0.22 -0.36 0.36 -0.78 0.48 -1.18 c0.1 -0.36 0.1 -0.74 -0.22 -1.02 c-0.36 -0.28 -0.76 -0.2 -1.12 0 c-0.48 0.3 -0.9 0.68 -1.26 1.12 c-0.9 1.16 -1.64 2.4 -2.24 3.74 z M104.04 20.26 c-0.74 0.2 -1.52 -0.24 -1.68 -0.96 c-0.32 -1.36 0.66 -3.12 1.96 -3.56 c1.2 -0.42 2.16 0.26 2.16 1.52 l0 0.5 c0 0.44 1.16 -0.4 2.24 -0.86 c0.66 -0.3 1.42 -0.56 2.12 -0.72 c0.1 -0.02 0.3 -0.06 0.3 0.14 c0 0.14 -0.12 0.14 -0.22 0.16 c-1.56 0.38 -2.82 1.14 -4.26 1.78 c-0.4 0.18 -0.66 0.4 -0.9 0.72 c-0.44 0.58 -0.96 1.1 -1.72 1.28 z M105.30000000000001 18.14 c0.48 0.12 0.82 -0.32 0.84 -1.14 c0.02 -0.24 -0.04 -0.56 -0.3 -0.74 c-0.32 -0.24 -0.4 0.28 -0.72 0.32 c-0.44 0.06 -0.56 0.52 -0.52 0.94 c0.04 0.38 0.36 0.54 0.7 0.62 z M103.76 19.86 c0.64 0 1.08 -0.4 1.48 -0.86 c0.16 -0.16 0.2 -0.34 -0.06 -0.44 c-1.04 -0.4 -1.28 -1.06 -0.74 -2.02 c0.04 -0.08 0.12 -0.2 0 -0.26 c-0.06 -0.04 -0.18 0 -0.26 0.04 c-0.76 0.32 -1.56 1.68 -1.48 2.5 c0.06 0.7 0.4 1.04 1.06 1.04 z M106.06 28.04 c-0.36 -0.18 -0.52 -0.5 -0.46 -0.9 c0.08 -0.56 0.28 -1.1 0.5 -1.6 c0.62 -1.32 1.36 -2.6 2.28 -3.74 c1.06 -1.36 1.8 -2.84 2.26 -4.48 c0.16 -0.52 0.34 -1.58 0.8 -1.48 c0.22 0.06 -0.3 1.06 -0.4 1.6 c-0.1 0.38 -0.28 0.88 -0.2 0.98 c0.2 0.04 0.52 -0.38 0.78 -0.62 c0.64 -0.58 1.2 -1.26 1.94 -1.72 c0.26 -0.16 0.52 -0.32 0.8 -0.42 c0.86 -0.3 1.26 0 1.2 1.06 c0 0.32 -0.16 0.7 -0.36 1.1 c-0.1 0.18 -0.38 0.42 -0.24 0.6 c0.2 0.24 0.52 -0.02 0.74 -0.08 c1.48 -0.42 2.42 -1.04 3.72 -1.84 c0.16 -0.1 0.58 -0.52 0.72 -0.3 c0.1 0.14 -0.24 0.36 -0.42 0.48 c-1.32 0.84 -2.28 1.5 -3.8 1.94 c-0.94 0.26 -1.88 0.52 -2.66 1.16 c-0.42 0.28 -0.98 0.5 -1.38 0.18 c-0.16 -0.14 -0.28 -0.36 -0.16 -0.64 c0.22 -0.52 0.68 -0.52 1.16 -0.54 c1.36 -0.06 2.32 -1.02 2.32 -2.3 c0 -0.5 -0.18 -0.68 -0.68 -0.46 c-0.14 0.06 -0.32 0.1 -0.44 0.2 c-1.8 1.36 -3.62 2.72 -4.34 5.02 c-0.52 1.64 -1.18 3.22 -1.84 4.82 c-0.26 0.6 -0.56 1.22 -1.06 1.68 c-0.2 0.2 -0.44 0.46 -0.78 0.3 z M112.36 19.76 c0.36 -0.06 0.7 -0.22 0.86 -0.54 c0.06 -0.1 -0.24 -0.08 -0.36 -0.1 c-0.36 -0.02 -0.68 0.02 -0.76 0.42 c-0.02 0.14 0.12 0.24 0.26 0.22 z M106.16 27.64 c0.24 0.08 0.38 -0.1 0.5 -0.26 c0.18 -0.22 0.36 -0.48 0.5 -0.74 c0.74 -1.52 1.32 -3.1 1.88 -4.7 c0.04 -0.12 0.12 -0.24 0.02 -0.36 c-0.1 0.08 -0.24 0.14 -0.32 0.24 c-0.92 1.34 -1.84 2.68 -2.46 4.2 c-0.12 0.34 -0.26 0.68 -0.36 0.92 c0 0.34 -0.04 0.6 0.24 0.7 z"></path></g>
			</g>
		</svg>
	